<?xml version="1.0" encoding="UTF-8"?>
<!DOCTYPE svg PUBLIC "-//W3C//DTD SVG 1.1//EN" "http://www.w3.org/Graphics/SVG/1.1/DTD/svg11.dtd">
<svg xmlns="http://www.w3.org/2000/svg" version="1.1" width="64px" height="64px" style="shape-rendering:geometricPrecision; text-rendering:geometricPrecision; image-rendering:optimizeQuality; fill-rule:evenodd; clip-rule:evenodd" xmlns:xlink="http://www.w3.org/1999/xlink">
<g><path style="opacity:0.764" fill="#fefffe" d="M 30.5,4.5 C 35.9775,6.73732 40.9775,9.73732 45.5,13.5C 43.891,14.8883 42.0577,15.8883 40,16.5C 37.2734,14.9401 34.4401,13.6068 31.5,12.5C 28.7629,13.9509 25.9296,15.2842 23,16.5C 21.4411,15.9706 19.9411,15.304 18.5,14.5C 17.2888,13.7261 17.2888,12.8928 18.5,12C 22.7324,9.72535 26.7324,7.22535 30.5,4.5 Z"/></g>
<g><path style="opacity:0.745" fill="#fefffe" d="M 13.5,14.5 C 20.3706,16.1481 20.8706,18.4814 15,21.5C 14.8078,23.5767 14.3078,25.5767 13.5,27.5C 6.84297,23.2131 6.84297,18.8797 13.5,14.5 Z"/></g>
<g><path style="opacity:0.735" fill="#fefffe" d="M 48.5,14.5 C 54.0907,15.6656 55.924,18.9989 54,24.5C 52.414,25.376 50.914,26.376 49.5,27.5C 48.6922,25.5767 48.1922,23.5767 48,21.5C 46.414,20.624 44.914,19.624 43.5,18.5C 45.0147,16.9178 46.6814,15.5845 48.5,14.5 Z"/></g>
<g><path style="opacity:0.67" fill="#fefffe" d="M 29.5,15.5 C 32.4629,15.1507 34.7962,16.1507 36.5,18.5C 33.1667,22.5 29.8333,22.5 26.5,18.5C 27.3398,17.265 28.3398,16.265 29.5,15.5 Z"/></g>
<g><path style="opacity:0.865" fill="#fefffe" d="M 22.5,19.5 C 25.3116,21.4081 28.3116,23.0748 31.5,24.5C 34.5802,23.2115 37.4136,21.5448 40,19.5C 45.1373,20.9993 46.804,24.3326 45,29.5C 42.6667,31.1667 40.3333,32.8333 38,34.5C 37.8253,38.211 37.3253,41.8776 36.5,45.5C 33.1667,48.1667 29.8333,48.1667 26.5,45.5C 25.6747,41.8776 25.1747,38.211 25,34.5C 22.6667,32.8333 20.3333,31.1667 18,29.5C 17.3333,27.1667 17.3333,24.8333 18,22.5C 19.6516,21.6006 21.1516,20.6006 22.5,19.5 Z"/></g>
<g><path style="opacity:0.786" fill="#fefffe" d="M 8.5,27.5 C 10.3863,28.3606 12.2196,29.3606 14,30.5C 14.3333,34.1667 14.6667,37.8333 15,41.5C 17.8349,42.9164 20.5015,44.583 23,46.5C 23.6667,48.8333 23.6667,51.1667 23,53.5C 18.3696,51.0325 13.8696,48.3658 9.5,45.5C 8.50408,39.5368 8.17075,33.5368 8.5,27.5 Z"/></g>
<g><path style="opacity:0.782" fill="#fefffe" d="M 53.5,27.5 C 54.6525,33.3188 54.8192,39.3188 54,45.5C 49.3333,48.1667 44.6667,50.8333 40,53.5C 39.3333,51.1667 39.3333,48.8333 40,46.5C 42.4985,44.583 45.1651,42.9164 48,41.5C 48.3333,37.8333 48.6667,34.1667 49,30.5C 50.6516,29.6006 52.1516,28.6006 53.5,27.5 Z"/></g>
<g><path style="opacity:0.69" fill="#fefffe" d="M 17.5,32.5 C 22.4156,33.972 24.4156,37.3054 23.5,42.5C 21.4176,42.528 19.5843,41.8613 18,40.5C 17.5026,37.854 17.3359,35.1873 17.5,32.5 Z"/></g>
<g><path style="opacity:0.69" fill="#fefffe" d="M 44.5,32.5 C 45.6341,34.9664 45.8007,37.633 45,40.5C 43.4157,41.8613 41.5824,42.528 39.5,42.5C 38.7713,37.8035 40.4379,34.4702 44.5,32.5 Z"/></g>
<g><path style="opacity:0.706" fill="#fefffe" d="M 25.5,48.5 C 29.1777,51.005 32.8443,51.005 36.5,48.5C 37.8333,50.8333 37.8333,53.1667 36.5,55.5C 34.6675,56.2485 33.0009,57.2485 31.5,58.5C 29.9991,57.2485 28.3325,56.2485 26.5,55.5C 25.5258,53.2573 25.1924,50.924 25.5,48.5 Z"/></g>
</svg>
