<svg width="500" height="75" viewBox="0 0 502 75" fill="none" xmlns="http://www.w3.org/2000/svg">
  <g filter="url(#filter0_di_10_150)">
    <path d="M11.0114 44.258L5.01453 39.4795C3.10962 37.9616 1.99997 35.6586 2 33.2228L2.00009 13.7761C2.00013 11.3397 3.11045 9.03602 5.01633 7.51818L11.012 2.7433C12.4282 1.6154 14.1852 1.00125 15.9957 1.00125L460.066 1.00006C461.839 1.00006 463.561 1.58904 464.963 2.67447L470.898 7.26919C472.855 8.78437 474 11.12 474 13.5949L474 33.2218C473.999 35.6574 472.89 37.9603 470.985 39.4782L464.988 44.2568C463.572 45.3855 461.814 46.0002 460.003 46.0002L15.9969 46.0014C14.1857 46.0014 12.428 45.3868 11.0114 44.258Z" fill="#34B6FF"/>
    <path d="M11.0114 44.258L5.01453 39.4795C3.10962 37.9616 1.99997 35.6586 2 33.2228L2.00009 13.7761C2.00013 11.3397 3.11045 9.03602 5.01633 7.51818L11.012 2.7433C12.4282 1.6154 14.1852 1.00125 15.9957 1.00125L460.066 1.00006C461.839 1.00006 463.561 1.58904 464.963 2.67447L470.898 7.26919C472.855 8.78437 474 11.12 474 13.5949L474 33.2218C473.999 35.6574 472.89 37.9603 470.985 39.4782L464.988 44.2568C463.572 45.3855 461.814 46.0002 460.003 46.0002L15.9969 46.0014C14.1857 46.0014 12.428 45.3868 11.0114 44.258Z" stroke="#96ADE5" stroke-width="2"/>
  </g>
<path d="M213.174 32.0015V16.1615H225.406C225.949 16.1615 226.44 16.2935 226.88 16.5575C227.335 16.8215 227.694 17.1808 227.958 17.6355C228.237 18.0901 228.376 18.5888 228.376 19.1315V22.2775C228.376 22.4828 228.354 22.6808 228.31 22.8715C228.281 23.0475 228.229 23.2161 228.156 23.3775C228.42 23.7441 228.625 24.1108 228.772 24.4775C228.933 24.8295 229.014 25.1888 229.014 25.5555V29.0315C229.014 29.5741 228.875 30.0728 228.596 30.5275C228.332 30.9821 227.973 31.3415 227.518 31.6055C227.078 31.8695 226.587 32.0015 226.044 32.0015H213.174ZM216.21 29.3395H225.956C226.059 29.3395 226.147 29.3028 226.22 29.2295C226.308 29.1561 226.352 29.0608 226.352 28.9435V25.6655C226.352 25.5481 226.308 25.4528 226.22 25.3795C226.147 25.3061 226.059 25.2695 225.956 25.2695H216.21C216.107 25.2695 216.012 25.3061 215.924 25.3795C215.851 25.4528 215.814 25.5481 215.814 25.6655V28.9435C215.814 29.0608 215.851 29.1561 215.924 29.2295C216.012 29.3028 216.107 29.3395 216.21 29.3395ZM216.21 22.6075H225.296C225.413 22.6075 225.509 22.5708 225.582 22.4975C225.655 22.4095 225.692 22.3141 225.692 22.2115V19.2195C225.692 19.1021 225.655 19.0068 225.582 18.9335C225.509 18.8601 225.413 18.8235 225.296 18.8235H216.21C216.107 18.8235 216.012 18.8601 215.924 18.9335C215.851 19.0068 215.814 19.1021 215.814 19.2195V22.2115C215.814 22.3141 215.851 22.4095 215.924 22.4975C216.012 22.5708 216.107 22.6075 216.21 22.6075ZM234.339 32.0015C233.796 32.0015 233.297 31.8695 232.843 31.6055C232.388 31.3415 232.029 30.9821 231.765 30.5275C231.501 30.0728 231.369 29.5741 231.369 29.0315V16.1615H234.009V28.9435C234.009 29.0608 234.045 29.1561 234.119 29.2295C234.207 29.3028 234.302 29.3395 234.405 29.3395H244.151C244.253 29.3395 244.341 29.3028 244.415 29.2295C244.503 29.1561 244.547 29.0608 244.547 28.9435V16.1615H247.209V29.0315C247.209 29.5741 247.069 30.0728 246.791 30.5275C246.527 30.9821 246.167 31.3415 245.713 31.6055C245.273 31.8695 244.781 32.0015 244.239 32.0015H234.339ZM255.923 32.0015V26.0615L248.619 16.1615H251.743L257.265 23.1135L262.743 16.1615H265.911L258.585 26.0835V32.0015H255.923Z" fill="black"/>
<defs>
<filter id="filter0_di_10_150" x="0" y="6.10352e-05" width="502" height="75.0013" filterUnits="userSpaceOnUse" color-interpolation-filters="sRGB">
<feFlood flood-opacity="0" result="BackgroundImageFix"/>
<feColorMatrix in="SourceAlpha" type="matrix" values="0 0 0 0 0 0 0 0 0 0 0 0 0 0 0 0 0 0 127 0" result="hardAlpha"/>
<feOffset dx="13" dy="14"/>
<feGaussianBlur stdDeviation="7"/>
<feComposite in2="hardAlpha" operator="out"/>
<feColorMatrix type="matrix" values="0 0 0 0 0 0 0 0 0 0 0 0 0 0 0 0 0 0 0.25 0"/>
<feBlend mode="normal" in2="BackgroundImageFix" result="effect1_dropShadow_10_150"/>
<feBlend mode="normal" in="SourceGraphic" in2="effect1_dropShadow_10_150" result="shape"/>
<feColorMatrix in="SourceAlpha" type="matrix" values="0 0 0 0 0 0 0 0 0 0 0 0 0 0 0 0 0 0 127 0" result="hardAlpha"/>
<feOffset/>
<feGaussianBlur stdDeviation="14.45"/>
<feComposite in2="hardAlpha" operator="arithmetic" k2="-1" k3="1"/>
<feColorMatrix type="matrix" values="0 0 0 0 0.204167 0 0 0 0 0.7135 0 0 0 0 1 0 0 0 0.7 0"/>
<feBlend mode="normal" in2="shape" result="effect2_innerShadow_10_150"/>
</filter>
</defs>
</svg>
