<svg id="Vrstva_1" data-name="Vrstva 1" xmlns="http://www.w3.org/2000/svg" viewBox="0 0 976.33 265.62" fill="white">
  <defs>

  </defs>
  <g>
    <path d="M502.71,144.48l-15.92,15.92h-8.67l-15.92-15.92v-39.25h11.03v34.68l9.22,9.22,9.22-9.22v-34.68h11.03v39.25Z"></path>
    <path d="M531.07,160.4v-10.88h9.46v-33.42h-9.46v-10.88h29.95v10.88h-9.46v33.42h9.46v10.88h-29.95Z"></path>
    <path d="M618.87,160.4v-14.35h-18.44v14.35h-11.03v-39.25l15.92-15.92h8.67l15.92,15.92v39.25h-11.03ZM618.87,125.72l-9.22-9.22-9.22,9.22v9.46h18.44v-9.46Z"></path>
    <path d="M704.38,160.4v-55.17h11.03v44.3h23.17v10.88h-34.21Z"></path>
    <path d="M793.28,160.4v-14.35h-18.44v14.35h-11.03v-39.25l15.92-15.92h8.67l15.92,15.92v39.25h-11.03ZM793.28,125.72l-9.22-9.22-9.22,9.22v9.46h18.44v-9.46Z"></path>
    <path d="M834.66,160.4v-55.17h32.55l7.96,7.96v15.61l-4.02,4.02,4.02,4.02v15.61l-7.96,7.96h-32.55ZM864.13,117.76l-1.65-1.66h-16.79v11.67h16.79l1.65-1.66v-8.35ZM864.13,139.51l-1.65-1.65h-16.79v11.67h16.79l1.65-1.66v-8.36Z"></path>
    <path d="M911.5,160.4l-7.96-7.96v-9.46h11.03v4.89l1.66,1.66h15.13l1.65-1.66v-7.96l-1.65-1.66h-19.86l-7.96-7.96v-17.1l7.96-7.96h24.59l7.96,7.96v9.46h-11.03v-4.89l-1.65-1.66h-15.13l-1.66,1.66v7.96l1.66,1.65h19.86l7.96,7.96v17.1l-7.96,7.96h-24.59Z"></path>
  </g>
  <path d="M183.32,234.22h59.4l91.89-138.85-.76,95.19h-41.88l-28.68,43.66h98.49l20.31-20.31V51.71l-20.31-20.31h-37.82l-140.63,202.82ZM110.47,234.22h52.04L302.89,31.4h-52.04L110.47,234.22ZM150.07,31.4H52.59l-20.31,20.31v162.21l20.31,20.31h36.81L229.78,31.4h-58.89l-91.13,135.55.76-91.64h40.36l29.19-43.92Z"></path>
</svg>